<svg width="100%" height="100%" viewBox="0 0 1000 300" preserveAspectRatio="xMidYMid slice" xmlns="http://www.w3.org/2000/svg">
  <defs>
    <linearGradient id="aquaLensGrad1" x1="0%" y1="0%" x2="100%" y2="100%">
      <stop offset="0%" stop-color="--object-fill-start" stop-opacity="0.8"/>
      <stop offset="100%" stop-color="--object-fill-end" stop-opacity="0.6"/>
    </linearGradient>
  </defs>

  <!-- Layered Waves -->
  <path d="M-100 150 Q 150 100, 300 160 T 600 130 T 900 170 T 1100 150 L 1100 320 L -100 320 Z" fill="--primary-accent" opacity="0.2"/>
  <path d="M-100 180 Q 200 120, 400 190 T 700 150 T 1000 200 T 1100 180 L 1100 320 L -100 320 Z" fill="--secondary-accent" opacity="0.15"/>

  <!-- Subtle Illustration: Stylized Data Icon -->
  <circle cx="150" cy="80" r="10" fill="--icon-fill" opacity="0.7"/>
  <path d="M150 90 Q 170 110 190 90" fill="none" stroke="--icon-fill" stroke-width="2" opacity="0.7"/>
  <path d="M150 95 Q 180 125 210 95" fill="none" stroke="--icon-fill" stroke-width="1.5" opacity="0.5"/>

  <!-- Subtle Illustration: Character looking at data (very abstract) -->
  <circle cx="850" cy="220" r="15" fill="--neutral-fill" opacity="0.6"/> <!-- Head -->
  <path d="M840 235 Q 850 260 860 235 L 850 280 Z" fill="--neutral-fill" opacity="0.6"/> <!-- Body -->
</svg>